<svg id="Group_127" data-name="Group 127" xmlns="http://www.w3.org/2000/svg" xmlns:xlink="http://www.w3.org/1999/xlink" width="300" height="300" viewBox="0 0 300 300">
  <defs>
    <clipPath id="clip-path">
      <circle id="Ellipse_142" data-name="Ellipse 142" cx="150" cy="150" r="150" fill="#fff" stroke="#707070" stroke-width="1"/>
    </clipPath>
  </defs>
  <circle id="Ellipse_143" data-name="Ellipse 143" cx="150" cy="150" r="150" fill="#ff6584"/>
  <g id="Mask_Group_1" data-name="Mask Group 1" clip-path="url(#clip-path)">
    <g id="Head_Front_Pony" data-name="Head/Front/Pony" transform="translate(-23.333 61.111)">
      <g id="Head" transform="translate(133.333 31.111)">
        <path id="Head-2" data-name="Head" d="M0,207.778,23.606,98.167C10.442,82.773,1.53,63.9,3.019,42.766,7.311-18.145,92.425-4.745,108.98,26s14.59,108.724-6.807,114.219c-8.534,2.191-26.713-3.176-45.215-14.286l11.614,81.847Z" fill="#b28b67"/>
      </g>
      <path id="hair" d="M149.424,154.444c-10.5,0-20.245-6.729-27.427-18.947-6.806-11.58-10.71-27.264-10.71-43.031,0-1.1.022-2.232.067-3.362-7.542,5.189-14.675,12.128-21.572,18.839-7.385,7.185-15.021,14.615-23.342,20.13-9.35,6.2-18.519,9.211-28.03,9.211-10.614,0-20.49-5.475-27.809-15.418A56.254,56.254,0,0,1,0,89.169,44.982,44.982,0,0,1,2.171,75.02,34.075,34.075,0,0,1,8.99,62.983a32.073,32.073,0,0,1,11.927-8.366A45.946,45.946,0,0,1,38.41,51.481c40.336,0,60.057,5.84,77.258,14.608,3.37-9.517,8.491-17.518,14.805-23.136a22.958,22.958,0,0,1,6.806-4.842,31.862,31.862,0,0,1,5.691-2.445c10.662-3.924,25.938-6.5,41.913-7.056,2.243-.078,4.488-.117,6.673-.117.831,0,1.667.006,2.485.017A28.535,28.535,0,1,1,224.122,57.16,143.226,143.226,0,0,1,192.2,62.6a60.024,60.024,0,0,1,1.839,15.344A86.774,86.774,0,0,1,192.45,93.9c-2.793-3.327-6.372-5.236-9.824-5.236a16.832,16.832,0,0,0-12.347,5.267,17.479,17.479,0,0,0-4.775,11.894,22.1,22.1,0,0,0,4.409,13.952A15.7,15.7,0,0,0,181.4,125.8c-4.385,8.436-9.493,15.506-14.77,20.448C160.82,151.688,155.033,154.444,149.424,154.444Z" fill="#201d38"/>
    </g>
  </g>
</svg>
