<svg xmlns="http://www.w3.org/2000/svg" xmlns:xlink="http://www.w3.org/1999/xlink" width="300" height="300" viewBox="0 0 300 300">
  <defs>
    <clipPath id="clip-path">
      <circle id="Ellipse_142" data-name="Ellipse 142" cx="150" cy="150" r="150" fill="#fff" stroke="#707070" stroke-width="1"/>
    </clipPath>
  </defs>
  <g id="Group_126" data-name="Group 126" transform="translate(0 0.638)">
    <circle id="Ellipse_143" data-name="Ellipse 143" cx="150" cy="150" r="150" transform="translate(0 -0.638)" fill="#00a7b9"/>
    <g id="Mask_Group_1" data-name="Mask Group 1" transform="translate(0 -0.638)" clip-path="url(#clip-path)">
      <g id="Head_Front_Long" data-name="Head/Front/Long" transform="translate(49.835 53.39)">
        <path id="Hair_Back" data-name="Hair Back" d="M62.946,211.906l0-.074H21.5A21.5,21.5,0,0,1,0,190.332V21.5A21.5,21.5,0,0,1,21.5,0H126.669a21.5,21.5,0,0,1,21.5,21.5v42c11.227,43.36,25.011,133.918,10.264,148.4Z" transform="translate(46.101 0)" fill="#201d38"/>
        <g id="Head" transform="translate(54.893 14.049)">
          <path id="Head-2" data-name="Head" d="M0,240.314,27.232,113.539C12.046,95.734,1.765,73.912,3.483,49.463,8.433-20.986,106.62-5.488,125.717,30.068s16.831,125.749-7.852,132.1c-9.845,2.534-30.815-3.673-52.159-16.523l13.4,94.663Z" transform="translate(0 0)" fill="#b28b67"/>
        </g>
        <path id="Hair_Front" data-name="Hair Front" d="M95.878,206.991H.39a173.293,173.293,0,0,1,.537-30.029,82.916,82.916,0,0,1,4.8-20.434c4.311-11.143,10.677-18.2,16.833-25.024,11.764-13.041,23.929-26.526,23.929-68.938.829-.815,1.656-1.637,2.455-2.432,2.348-2.334,4.557-4.531,6.775-6.52l-.107-2.574A133.672,133.672,0,0,1,72.78,25.52,88.012,88.012,0,0,1,92.626,7.975C101.128,2.683,109.848,0,118.545,0c16.978,0,30.271,3.531,40.639,10.8,9.054,6.344,14.734,14.739,19.745,22.146l.024.035c-2.449,8.449-7.229,15.108-15.041,20.961-6.988,5.235-15.6,9.223-24.718,13.445-7.92,3.668-16.11,7.46-24.061,12.417a18.164,18.164,0,1,0-11.411,32.34c.273,0,.55-.006.824-.019,1.924,20.774,2.313,41.436,1.1,58.181-.964,13.306-3.441,30.472-9.766,36.687Z" transform="translate(0 3.31)" fill="#201d38"/>
      </g>
    </g>
  </g>
</svg>
