<?xml version="1.0" encoding="utf-8"?>
<!-- Generator: Adobe Illustrator 24.1.0, SVG Export Plug-In . SVG Version: 6.00 Build 0)  -->
<svg version="1.1" id="Layer_1" xmlns="http://www.w3.org/2000/svg" xmlns:xlink="http://www.w3.org/1999/xlink" x="0px" y="0px"
	 viewBox="0 0 349.1 448.8" style="enable-background:new 0 0 349.1 448.8;" xml:space="preserve">
<style type="text/css">
	.st0{opacity:0.2;fill:#FFAECF;}
</style>
<path class="st0" d="M216.4,8v208.4H66.6c-3.9,37.4,11.9,74.2,41.6,97.3v75.6C42.7,362.3,0,298.5,0,227.7c0-3.8,0.1-7.6,0.4-11.3H0
	V8c0-4.4,3.6-8,8-8h200.4C212.8,0,216.4,3.6,216.4,8z"/>
<path class="st0" d="M349.1,227.7c0,1.6,0,3.1-0.1,4.7h-0.2v208.4c0,4.4-3.6,8-8,8H140.5c-4.4,0-8-3.6-8-8V232.4h150.6
	c0.1-1.6,0.1-3.1,0.1-4.7c0-33.8-15.7-65.6-42.5-86.2V66.1C306.3,92.9,349.2,156.8,349.1,227.7z"/>
</svg>
